<?xml version="1.0" encoding="utf-8"?>
<!-- Generator: Adobe Illustrator 18.0.0, SVG Export Plug-In . SVG Version: 6.00 Build 0)  -->
<!DOCTYPE svg PUBLIC "-//W3C//DTD SVG 1.1//EN" "http://www.w3.org/Graphics/SVG/1.1/DTD/svg11.dtd">
<svg version="1.1" id="Layer_1" xmlns="http://www.w3.org/2000/svg" xmlns:xlink="http://www.w3.org/1999/xlink" x="0px" y="0px"
	 viewBox="0 0 682.7 169.4" enable-background="new 0 0 682.7 169.4" xml:space="preserve">
<g>
	<polygon points="211,75.6 211,5.4 262.1,5.4 262.1,17 223.5,17 223.5,34.4 258.8,34.4 258.8,46 223.5,46 223.5,64.1 262.8,64.1 
		262.8,75.6 	"/>
	<path d="M290.6,76.8c-13.8,0-24.6-11.9-24.6-27c0-15.2,10.8-27.1,24.6-27.1c5.8,0,11.1,2.1,15.2,6l0.9,0.8V0.3h12.5v75.4h-11.9
		v-6.4l-0.9,0.9C302.3,74.5,296.8,76.8,290.6,76.8z M292.7,34.1c-7.9,0-14.1,6.9-14.1,15.7c0,8.6,6.2,15.4,14.1,15.4
		c7.8,0,14.1-6.9,14.1-15.4C306.8,41.2,300.5,34.1,292.7,34.1z"/>
	<path d="M350.1,76.8c-13.8,0-24.6-11.9-24.6-27c0-15.2,10.8-27.1,24.6-27.1c5.8,0,11.1,2.1,15.2,6l0.9,0.8V0.3h12.5v75.4h-11.9
		v-6.4l-0.9,0.9C361.7,74.5,356.2,76.8,350.1,76.8z M352.1,34.1c-7.9,0-14.1,6.9-14.1,15.7c0,8.6,6.2,15.4,14.1,15.4
		c7.8,0,14.1-6.9,14.1-15.4C366.2,41.2,359.9,34.1,352.1,34.1z"/>
	<path d="M460.6,76.9c-13.1,0-22.6-6.8-24.4-17.4H449c2.1,4.5,7.5,6.2,11.6,6.2c6.2,0,10.1-2,10.1-5.3c0-3.5-2.4-4.7-11.5-6.2
		c-11.2-1.7-21.6-4.7-21.6-15.3c0-7.9,6.9-16.4,22.1-16.4c11.6,0,20.3,6.1,22.3,15.5h-13.1c-1.1-2.8-4.5-4.4-9.2-4.4
		c-6.5,0-9.4,2.4-9.4,4.7c0,3.3,4.5,4.2,10.9,5.2c12.1,2,22.2,4.6,22.2,16C483.3,69.7,474,76.9,460.6,76.9z"/>
	<polygon points="493.9,75.6 493.9,34.8 487.5,34.8 487.5,23.8 493.9,23.8 493.9,10.3 506.4,10.3 506.4,23.8 517.2,23.8 517.2,34.8 
		506.4,34.8 506.4,75.7 	"/>
	<path d="M544.4,76.9c-14.6,0-26.1-11.9-26.1-27.1c0-15.3,11.5-27.3,26.1-27.3c14.7,0,26.2,12,26.2,27.3
		C570.6,65,559.1,76.9,544.4,76.9z M544.4,33.8c-7.7,0-13.6,6.9-13.6,16c0,8.9,5.8,15.6,13.6,15.6S558,58.8,558,49.9
		C558,40.7,552.1,33.8,544.4,33.8z"/>
	<path d="M610.7,75.6V45.3c0-3.3-1-11-10.4-11c-6.3,0-10.8,4.6-10.8,11v30.4h-12.5V23.8h11.9v6l0.9-1.1c3.5-4.1,8.1-6.3,13.3-6.3
		c12,0,20.1,9.2,20.1,22.8v30.4H610.7z"/>
	<path d="M655.9,76.9c-14.7,0-26.6-12.2-26.6-27.1c0-15.1,11.9-27.3,26.6-27.3c7.6,0,14.4,2.9,19.2,8.1c5.4,5.9,7.8,14.1,7,23.9
		h-40.2l0.2,0.7c1.8,6.7,7.1,10.9,13.8,10.9c5,0,9.3-2.3,11.5-6.2h13.5C677.4,70.4,668,76.9,655.9,76.9z M655.8,33.3
		c-6.3,0-11.5,4-13.5,10.4l-0.2,0.7h27.7l-0.2-0.7C667.8,37.4,662.4,33.3,655.8,33.3z"/>
	<polygon points="395.4,99 403.4,77.1 383.2,23.8 396.4,23.8 409.7,63.1 422.7,23.8 436.1,23.8 408.3,99 	"/>
</g>
<polygon points="0,5.3 0,169.4 164.1,169.4 164.1,75.6 93.8,146.4 93.8,75.6 23.4,75.6 93.8,5.3 "/>
</svg>
